<svg clip-rule="evenodd" fill-rule="evenodd" stroke-linejoin="round" stroke-miterlimit="1.41421" viewBox="0 0 352 356" xmlns="http://www.w3.org/2000/svg"><g fill="#231f20" fill-rule="nonzero"><path d="m175.566 8.042c-92.394 0-167.566 76.05-167.566 169.529 0 93.478 75.172 169.529 167.566 169.529 92.395 0 167.563-76.051 167.563-169.529 0-93.479-75.168-169.529-167.563-169.529m0 347.058c-96.805 0-175.566-79.64-175.566-177.529 0-97.89 78.761-177.529 175.566-177.529 96.806 0 175.563 79.639 175.563 177.529 0 97.889-78.757 177.529-175.563 177.529"/><path d="m82.703 111.648h-4.154c-3.653 0-6.378.707-8.174 2.121-1.798 1.414-2.697 3.624-2.697 6.629 0 1.001.192 2.459.575 4.375.383 1.915.809 3.697 1.28 5.348l12.109 41.806c.649 2.298 1.342 4.787 2.079 7.468.736 2.681 1.427 5.392 2.076 8.132.647 2.739 1.237 5.376 1.767 7.91.531 2.531.913 4.768 1.149 6.713.825-3.887 1.724-7.523 2.697-10.911s1.987-6.85 3.048-10.385l23.865-77.515h13.257l25.009 69.118c1.061 2.829 2.05 5.701 2.964 8.617.911 2.917 1.75 5.701 2.516 8.353.766 2.651 1.443 5.097 2.032 7.336.589 2.236 1.031 4.149 1.326 5.741.471-2.181.973-4.595 1.502-7.244.53-2.652 1.107-5.435 1.724-8.352.619-2.917 1.267-5.907 1.946-8.971.676-3.064 1.367-6.04 2.074-8.927l9.546-39.067c.177-.707.37-1.531.576-2.474s.396-1.871.574-2.784c.176-.914.31-1.768.398-2.564.089-.795.131-1.429.131-1.9 0-3.123-.927-5.333-2.782-6.629-1.857-1.296-4.789-1.944-8.796-1.944h-4.154v-9.546h47.198v9.546h-3.448c-1.767 0-3.329.176-4.684.53-1.356.353-2.564 1.046-3.624 2.077s-2.016 2.46-2.87 4.287c-.856 1.826-1.696 4.242-2.521 7.247l-25.52 95.818h56.793c.781-.062 1.534-.158 2.225-.322 1.119-.264 2.092-.809 2.916-1.635.825-.825 1.473-2.003 1.946-3.536.47-1.531.706-3.593.706-6.186v-87.232c0-2.416-.236-4.346-.706-5.789-.473-1.444-1.133-2.549-1.989-3.315-.854-.766-1.842-1.281-2.962-1.547-1.119-.265-2.327-.397-3.623-.397h-7.602v-9.546h55.595c8.368 0 15.645.884 21.832 2.651 5.897 1.685 10.832 4.088 14.828 7.191-24.491-51.069-76.672-86.334-137.091-86.334-56.454 0-105.718 30.789-131.92 76.492h39.058z"/><path d="m272.018 181.915h-6.187v28.986c0 2.356.265 4.257.796 5.7s1.238 2.534 2.121 3.271c.884.736 1.916 1.222 3.094 1.459.671.133 1.355.219 2.045.277h47.146c4.214-13.941 6.489-28.722 6.489-44.037 0-9.989-.975-19.748-2.814-29.198-.471 2.63-1.18 5.208-2.131 7.733-1.886 5.008-4.951 9.428-9.193 13.258-4.241 3.83-9.752 6.879-16.529 9.148-6.776 2.268-15.056 3.403-24.837 3.403"/><path d="m89.742 302.98c24.422 16.746 53.978 26.552 85.823 26.552 31.848 0 61.403-9.806 85.824-26.552z"/><path d="m67.669 221.608-30.22-100.326c-.416-1.482-.909-2.757-1.471-3.838-7.955 18.441-12.37 38.767-12.37 60.127 0 15.315 2.275 30.097 6.49 44.037z"/><path d="m96.026 221.608h50.02l-26.928-75.224z"/><path d="m76.119 276.667 17.743-44.478 8.98-.019-2.904 44.449 18.379-44.48 4.946-.01-23.181 54.149-10.178.019 2.415-36.968-16.689 36.997-10.178.021 3.239-49.611c-7.863 2.49-12.191 8.162-12.712 16.153-.242 3.706.636 4.283.666 4.937-4.876.007-7.446-1.803-7.103-7.03.632-9.657 14.24-18.909 26.042-18.932.99-.005 1.902.067 2.815.136z"/><path d="m135.259 253.09c-3.958.011-7.744 8.224-9.675 15.049 6.508-.082 11.472-5.829 11.882-10.986.101-1.524-.087-4.066-2.207-4.063m-5.499 27.898c3.465-.008 9.675-4.23 12.502-9.609l3.183-.008c-4.519 7.489-11.785 14.837-20.902 14.856-6.785.014-10.114-5.283-9.704-11.529.6-9.223 5.477-25.427 18.339-25.453 5.795-.012 8.885 2.45 8.555 7.537-.581 8.859-10.171 13.962-16.944 14.85-.214 1.162-.359 2.252-.415 3.122-.315 4.793 2.633 6.243 5.386 6.234"/><path d="m160.341 253.039c-3.953.009-7.746 8.225-9.675 15.054 6.508-.086 11.478-5.832 11.886-10.988.1-1.528-.091-4.07-2.211-4.067m-5.493 27.897c3.459-.003 9.669-4.228 12.499-9.608l3.177-.007c-4.516 7.49-11.78 14.837-20.897 14.857-6.776.013-10.104-5.279-9.697-11.528.604-9.224 5.477-25.43 18.328-25.456 5.796-.008 8.888 2.452 8.554 7.535-.577 8.863-10.166 13.969-16.938 14.853-.214 1.159-.359 2.248-.413 3.123-.316 4.791 2.63 6.238 5.387 6.231"/><path d="m201.69 249.759-15.001 9.98c.651-.145 1.216-.22 1.855-.22 3.817-.007 7.925 4.197 7.611 8.992-.036.578-.151 1.233-.328 1.813l-1.261 4.14c-.264.801-.458 1.601-.506 2.327-.103 1.599.602 2.686 3.36 2.682 2.828-.008 5.568-4.078 8.546-6.409l2.407-.004c-3.475 3.345-10.888 13.02-16.407 13.03-5.446.013-8.676-2.452-8.331-7.753.076-1.162.305-2.472.745-3.849l.999-3.344c.184-.652.293-1.306.332-1.888.172-2.614-1.056-4.284-2.968-4.279-1.769.004-3.076.585-4.626 1.607l-5.307 19.546-10.173.023 13.47-49.411 10.554-1.476-6.961 25.434c5.583-4.369 14.362-10.995 14.356-10.923z"/><path d="m220.006 252.92c-3.956.007-7.745 8.22-9.672 15.052 6.506-.088 11.472-5.836 11.88-10.989.102-1.528-.087-4.07-2.208-4.063m-5.496 27.897c3.465-.005 9.677-4.234 12.503-9.612l3.179-.004c-4.515 7.485-11.785 14.835-20.903 14.855-6.783.011-10.109-5.28-9.699-11.524.6-9.227 5.474-25.434 18.337-25.46 5.795-.01 8.886 2.452 8.555 7.538-.581 8.859-10.172 13.963-16.94 14.847-.223 1.165-.363 2.254-.419 3.126-.315 4.795 2.633 6.24 5.387 6.234"/><path d="m254.93 274.346c-.265.799-.455 1.597-.504 2.326-.104 1.596.601 2.68 3.358 2.68 2.827-.007 4.037-2.264 7.011-4.591l2.403-.004c-3.47 3.347-9.354 11.199-14.866 11.212-5.513.012-8.602-2.453-8.247-7.9.075-1.161.296-2.324.667-3.702l3.539-13.081c.184-.655.301-1.311.335-1.889.173-2.616-1.062-4.282-2.969-4.277-1.696 0-3.005.511-4.551 1.533l-7.923 29.355-10.177.021 9.861-36.331 10.174-.023-1.099 3.929c3.041-2.19 6.407-3.938 9.513-3.942 3.816-.011 7.853 4.194 7.534 9.061-.038.579-.076 1.162-.252 1.742z"/><path d="m270.073 275.183c-.288 4.36 1.996 5.154 3.765 5.151 1.622-.004 3.21-1.603 4.682-3.569.12-.799.317-1.599.587-2.473l5.293-19.328c-1.075-.937-2.4-1.226-3.387-1.221-5.297.009-10.296 11.566-10.94 21.44m19.138-.91c-.266.872-.46 1.677-.514 2.473-.099 1.527.392 2.685 2.369 2.681.494-.001 1.274-.003 1.852-.222-2.388 6.25-5.387 6.695-7.791 6.698-4.092.01-6.148-2.166-6.634-5.433-2.317 2.98-5.689 5.89-9.927 5.901-6.784.017-8.441-4.919-8.164-9.204.816-12.495 6.177-27.463 20.315-27.492 1.696-.005 3.409.79 4.614 1.805l4.087-14.968 10.48-1.475z"/><path d="m283.201 114.521c-2.799-1.149-6.232-1.724-10.298-1.724h-7.071v58.599h4.42c4.478 0 8.278-.559 11.401-1.679 3.123-1.119 5.673-2.887 7.648-5.303 1.972-2.416 3.416-5.539 4.33-9.369.913-3.829 1.368-8.455 1.368-13.876 0-4.832-.396-9.03-1.192-12.595-.794-3.565-2.062-6.511-3.8-8.839-1.738-2.327-4.006-4.065-6.806-5.214"/></g></svg>